<svg xmlns="http://www.w3.org/2000/svg" width="250" height="250" viewBox="0 0 250 250" fill="none"><path d="M218.75 50.7812H156.25C149.792 50.7874 143.459 52.571 137.947 55.9368C132.435 59.3025 127.956 64.1205 125 69.8628C122.044 64.1205 117.565 59.3025 112.053 55.9368C106.541 52.571 100.208 50.7874 93.75 50.7812H31.25C28.1431 50.7847 25.1644 52.0205 22.9674 54.2174C20.7705 56.4144 19.5347 59.3931 19.5312 62.5V187.5C19.5347 190.607 20.7705 193.586 22.9674 195.783C25.1644 197.98 28.1431 199.215 31.25 199.219H93.75C101 199.227 107.95 202.11 113.076 207.237C118.202 212.363 121.086 219.313 121.094 226.562C121.094 227.599 121.505 228.592 122.238 229.325C122.97 230.057 123.964 230.469 125 230.469C126.036 230.469 127.03 230.057 127.762 229.325C128.495 228.592 128.906 227.599 128.906 226.562C128.914 219.313 131.798 212.363 136.924 207.237C142.05 202.11 149 199.227 156.25 199.219H218.75C221.857 199.215 224.836 197.98 227.033 195.783C229.23 193.586 230.465 190.607 230.469 187.5V62.5C230.465 59.3931 229.23 56.4144 227.033 54.2174C224.836 52.0205 221.857 50.7847 218.75 50.7812ZM93.75 191.406H31.25C30.2143 191.405 29.2214 190.993 28.4891 190.261C27.7568 189.529 27.3449 188.536 27.3438 187.5V62.5C27.3449 61.4643 27.7568 60.4714 28.4891 59.7391C29.2214 59.0068 30.2143 58.5949 31.25 58.5938H93.75C101 58.6019 107.95 61.4853 113.076 66.6115C118.202 71.7377 121.086 78.688 121.094 85.9375V204.489C117.803 200.404 113.639 197.108 108.907 194.844C104.175 192.58 98.9956 191.406 93.75 191.406ZM222.656 187.5C222.655 188.536 222.243 189.529 221.511 190.261C220.779 190.993 219.786 191.405 218.75 191.406H156.25C151.003 191.406 145.824 192.583 141.092 194.848C136.36 197.114 132.196 200.412 128.906 204.499V85.9375C128.914 78.688 131.798 71.7377 136.924 66.6115C142.05 61.4853 149 58.6019 156.25 58.5938H218.75C219.786 58.5949 220.779 59.0068 221.511 59.7391C222.243 60.4714 222.655 61.4643 222.656 62.5V187.5Z" fill="#333333"></path></svg>