<?xml version="1.0" encoding="UTF-8"?> <svg xmlns="http://www.w3.org/2000/svg" width="24" height="24" viewBox="0 0 24 24" fill="none"><path d="M12.639 12.0955C12.639 11.6136 12.2489 11.2229 11.7678 11.2229C11.2867 11.2229 10.8966 11.6136 10.8966 12.0955H12.639ZM11.7678 20.1439H10.8966C10.8966 20.4336 11.0402 20.7044 11.2798 20.8667C11.5195 21.029 11.8239 21.0616 12.0923 20.9536L11.7678 20.1439ZM18.44 17.4611L18.7645 18.2708C19.0948 18.138 19.3112 17.8174 19.3112 17.4611H18.44ZM19.3112 11.8837C19.3112 11.4018 18.9211 11.0112 18.44 11.0112C17.9588 11.0112 17.5688 11.4018 17.5688 11.8837H19.3112ZM12.2968 11.4022C11.9145 11.1096 11.3677 11.1828 11.0756 11.5656C10.7835 11.9485 10.8565 12.4961 11.2388 12.7887L12.2968 11.4022ZM14.1467 13.9162L13.6177 14.6095C13.8768 14.8077 14.2246 14.8446 14.5193 14.705L14.1467 13.9162ZM18.809 12.6725C19.2439 12.4663 19.4298 11.9462 19.2241 11.5106C19.0182 11.075 18.4989 10.8889 18.064 11.0949L18.809 12.6725ZM11.4433 11.2857C10.9967 11.4652 10.7801 11.9733 10.9593 12.4205C11.1386 12.8677 11.6458 13.0847 12.0923 12.9052L11.4433 11.2857ZM18.7645 10.2224C19.211 10.0429 19.4277 9.53477 19.2484 9.08757C19.0692 8.64037 18.5619 8.42337 18.1154 8.60291L18.7645 10.2224ZM18.1155 10.2224C18.5621 10.4019 19.0693 10.1848 19.2484 9.73759C19.4277 9.29038 19.2109 8.78233 18.7644 8.60286L18.1155 10.2224ZM12.0922 5.92122C11.6457 5.74176 11.1384 5.95882 10.9593 6.40605C10.7801 6.85328 10.9969 7.36133 11.4434 7.54079L12.0922 5.92122ZM18.8669 8.65321C18.4475 8.41706 17.9163 8.56616 17.6805 8.98623C17.4447 9.4063 17.5936 9.93828 18.0131 10.1744L18.8669 8.65321ZM20.8224 10.7552L21.1945 11.5442C21.4892 11.4049 21.6815 11.1124 21.693 10.7862C21.7046 10.4599 21.5334 10.1546 21.2493 9.99458L20.8224 10.7552ZM18.064 11.0949C17.629 11.3007 17.4432 11.8205 17.6487 12.2564C17.8542 12.692 18.3739 12.8783 18.809 12.6725L18.064 11.0949ZM17.7905 8.82714C17.4677 9.18444 17.4951 9.73619 17.8519 10.0596C18.2086 10.3829 18.7595 10.3555 19.0825 9.99819L17.7905 8.82714ZM21.2928 6.25169L21.9388 6.83719C22.136 6.61885 22.2102 6.31553 22.1356 6.03065C22.0611 5.74576 21.8482 5.51772 21.5693 5.42425L21.2928 6.25169ZM14.1467 3.85624L14.4232 3.02881C14.0824 2.91454 13.7064 3.02171 13.4766 3.29864L14.1467 3.85624ZM11.0919 6.1734C10.7844 6.54406 10.8352 7.09419 11.2052 7.40214C11.5753 7.7101 12.1246 7.65928 12.4321 7.28862L11.0919 6.1734ZM4.76536 8.60286C4.31883 8.78233 4.1021 9.29038 4.28129 9.73759C4.46048 10.1848 4.96773 10.4019 5.41427 10.2224L4.76536 8.60286ZM12.0864 7.54079C12.5329 7.36133 12.7497 6.85328 12.5705 6.40605C12.3913 5.95882 11.8841 5.74176 11.4376 5.92122L12.0864 7.54079ZM5.51673 10.1733C5.93615 9.93711 6.08502 9.40513 5.84924 8.98507C5.61345 8.565 5.08231 8.41589 4.66289 8.65204L5.51673 10.1733ZM2.70739 10.7541L2.28047 9.99342C1.99652 10.1533 1.82534 10.4585 1.83673 10.7845C1.84813 11.1106 2.04018 11.4031 2.33461 11.5427L2.70739 10.7541ZM4.71704 12.6724C5.1519 12.8785 5.67134 12.6926 5.87722 12.2571C6.0831 11.8215 5.89747 11.3013 5.46259 11.095L4.71704 12.6724ZM5.41439 8.60291C4.96788 8.42337 4.46059 8.64037 4.28133 9.08757C4.10208 9.53477 4.31874 10.0429 4.76524 10.2224L5.41439 8.60291ZM11.4374 12.9052C11.884 13.0847 12.3912 12.8677 12.5705 12.4205C12.7497 11.9733 12.5331 11.4652 12.0865 11.2857L11.4374 12.9052ZM4.43897 9.99272C4.75881 10.3527 5.30948 10.3848 5.66894 10.0645C6.02839 9.74422 6.0605 9.19264 5.74065 8.83262L4.43897 9.99272ZM2.70739 6.73101L2.36312 5.92948C2.10599 6.04026 1.91767 6.26803 1.85694 6.5417C1.79622 6.81537 1.87048 7.1016 2.05655 7.31103L2.70739 6.73101ZM9.37957 3.85624L10.0499 3.29896C9.8032 3.00123 9.39014 2.90181 9.0353 3.05472L9.37957 3.85624ZM11.0916 7.28829C11.3989 7.6591 11.9482 7.71019 12.3184 7.40241C12.6886 7.09463 12.7397 6.54453 12.4323 6.17373L11.0916 7.28829ZM12.6332 12.0966C12.6332 11.6147 12.2431 11.2241 11.762 11.2241C11.2809 11.2241 10.8908 11.6147 10.8908 12.0966H12.6332ZM11.762 20.1439L11.4374 20.9536C11.7059 21.0616 12.0103 21.029 12.25 20.8667C12.4896 20.7044 12.6332 20.4336 12.6332 20.1439H11.762ZM5.08981 17.4611H4.21862C4.21862 17.8174 4.43503 18.138 4.76524 18.2708L5.08981 17.4611ZM5.96101 11.8837C5.96101 11.4018 5.57096 11.0112 5.08981 11.0112C4.60867 11.0112 4.21862 11.4018 4.21862 11.8837H5.96101ZM12.2905 12.7891C12.673 12.4968 12.7464 11.9492 12.4545 11.5661C12.1627 11.183 11.616 11.1095 11.2335 11.4018L12.2905 12.7891ZM9.37957 13.9162L9.00702 14.705C9.30151 14.8445 9.64906 14.8078 9.90809 14.6098L9.37957 13.9162ZM5.46259 11.095C5.02766 10.889 4.50804 11.075 4.30229 11.5106C4.09654 11.9462 4.2821 12.4662 4.71704 12.6724L5.46259 11.095ZM10.8966 12.0955V20.1439H12.639V12.0955H10.8966ZM12.0923 20.9536L18.7645 18.2708L18.1154 16.6513L11.4433 19.3341L12.0923 20.9536ZM19.3112 17.4611V11.8837H17.5688V17.4611H19.3112ZM11.2388 12.7887L13.6177 14.6095L14.6757 13.2229L12.2968 11.4022L11.2388 12.7887ZM14.5193 14.705L18.809 12.6725L18.064 11.0949L13.7742 13.1274L14.5193 14.705ZM12.0923 12.9052L18.7645 10.2224L18.1154 8.60291L11.4433 11.2857L12.0923 12.9052ZM18.7644 8.60286L12.0922 5.92122L11.4434 7.54079L18.1155 10.2224L18.7644 8.60286ZM18.0131 10.1744L20.3955 11.5158L21.2493 9.99458L18.8669 8.65321L18.0131 10.1744ZM20.4503 9.9662L18.064 11.0949L18.809 12.6725L21.1945 11.5442L20.4503 9.9662ZM19.0825 9.99819L21.9388 6.83719L20.6469 5.66618L17.7905 8.82714L19.0825 9.99819ZM21.5693 5.42425L14.4232 3.02881L13.8703 4.68368L21.0164 7.07912L21.5693 5.42425ZM13.4766 3.29864L11.0919 6.1734L12.4321 7.28862L14.8169 4.41385L13.4766 3.29864ZM5.41427 10.2224L12.0864 7.54079L11.4376 5.92122L4.76536 8.60286L5.41427 10.2224ZM4.66289 8.65204L2.28047 9.99342L3.13431 11.5147L5.51673 10.1733L4.66289 8.65204ZM2.33461 11.5427L4.71704 12.6724L5.46259 11.095L3.08017 9.96538L2.33461 11.5427ZM4.76524 10.2224L11.4374 12.9052L12.0865 11.2857L5.41439 8.60291L4.76524 10.2224ZM5.74065 8.83262L3.35823 6.15098L2.05655 7.31103L4.43897 9.99272L5.74065 8.83262ZM3.05166 7.53253L9.72386 4.65777L9.0353 3.05472L2.36312 5.92948L3.05166 7.53253ZM8.70921 4.41352L11.0916 7.28829L12.4323 6.17373L10.0499 3.29896L8.70921 4.41352ZM10.8908 12.0966V20.1439H12.6332V12.0966H10.8908ZM12.0865 19.3341L5.41439 16.6513L4.76524 18.2708L11.4374 20.9536L12.0865 19.3341ZM5.96101 17.4611V11.8837H4.21862V17.4611H5.96101ZM11.2335 11.4018L8.85109 13.2226L9.90809 14.6098L12.2905 12.7891L11.2335 11.4018ZM9.75209 13.1274L5.46259 11.095L4.71704 12.6724L9.00702 14.705L9.75209 13.1274Z" fill="white"></path></svg> 