<svg xmlns="http://www.w3.org/2000/svg" width="250" height="250" viewBox="0 0 250 250" fill="none"><g clip-path="url(#clip0_35_1977)"><path d="M1.42598 153.747C3.26912 150.121 6.65584 147.67 10.7184 147.02L36.7797 142.852C63.7225 138.538 88.3622 126.25 108.033 107.317C134.445 81.8918 169.96 46.8845 189.167 24.4928C193.573 19.3586 196.927 15.1059 199.138 11.8529C199.62 11.1433 200.385 10.6767 201.237 10.5733C202.088 10.4704 202.944 10.7391 203.581 11.3115C218.791 24.9642 248.043 58.9289 249.281 60.3678C250.337 61.5952 250.216 63.4419 249.009 64.5213L236.283 75.9041C241.691 80.3827 245.406 83.5334 245.861 83.921C247.095 84.9688 247.264 86.8114 246.24 88.0655L222.74 116.856C209.598 132.955 203.261 153.231 204.895 173.949C205.588 182.737 202.751 191.211 196.904 197.809C191.059 204.408 182.988 208.246 174.181 208.617L157.613 209.315C137.304 210.171 117.508 216.398 100.365 227.323C87.7107 235.387 73.2658 239.448 58.7905 239.448C45.9895 239.448 33.1642 236.272 21.5353 229.881C17.0306 227.405 14.5307 222.687 15.0115 217.57C15.4923 212.452 18.8274 208.284 23.7143 206.69L48.8098 198.508C63.7142 193.65 77.4543 186.303 89.5771 176.805C87.4338 177.591 85.3101 178.435 83.2167 179.345C73.3038 183.663 62.7888 185.812 52.2916 185.812C40.28 185.812 28.2915 182.996 17.2695 177.394C12.9359 175.191 8.79081 172.564 4.95177 169.587C0.0583147 165.803 -1.39134 159.288 1.42598 153.747ZM202.059 17.9946C200.287 20.3851 198.089 23.1377 195.503 26.2129C208.927 39.1952 228.691 61.7444 235.033 69.048L242.867 62.0404C236.424 54.628 215.171 30.3884 202.059 17.9946ZM192.613 49.4225C191.202 52.1245 189.451 55.195 187.42 58.5651C202.715 69.3054 225.743 88.4941 233.14 94.7159L239.786 86.573C232.268 80.2549 207.497 59.6237 192.613 49.4225ZM192.455 193.868C197.221 188.488 199.534 181.58 198.97 174.416C198.61 169.846 198.616 165.297 198.967 160.802C184.444 159.049 170.08 166.593 163.363 179.808C159.66 187.094 158.624 195.334 160.36 203.251L173.931 202.679C181.111 202.376 187.69 199.247 192.455 193.868ZM25.5562 212.342C22.9184 213.202 21.1882 215.364 20.9284 218.127C20.6687 220.89 21.9656 223.337 24.3972 224.673C47.2721 237.244 75.1576 236.34 97.1701 222.311C114.344 211.366 134.054 204.918 154.348 203.555C152.607 194.597 153.886 185.335 158.064 177.115C165.907 161.685 182.672 152.869 199.633 154.897C201.888 139.674 208.196 125.273 218.135 113.097L229.378 99.3229C222.199 93.2906 199.282 74.2024 184.294 63.6345C168.715 88.4132 141.208 125.756 118.392 155.893C101.173 178.637 77.7485 195.327 50.6511 204.161L25.5562 212.342ZM8.59111 164.89C12.1365 167.639 15.9625 170.064 19.962 172.097C39.0288 181.788 61.2185 182.446 80.844 173.897C87.1889 171.137 93.7834 168.917 100.456 167.282C105.189 162.656 109.602 157.656 113.654 152.304C137.37 120.979 178.665 65.2304 188.772 43.8105C189.138 43.0348 189.821 42.4553 190.646 42.2205C191.471 41.9857 192.356 42.1183 193.076 42.5849C201.605 48.1131 214.342 58.0581 225.174 66.8132C216.531 57.0025 202.034 40.838 191.626 30.7319C171.88 53.3353 137.751 86.9594 112.155 111.599C91.605 131.377 65.8658 144.214 37.7188 148.721L11.6569 152.889C8.69512 153.363 7.29538 155.317 6.72419 156.441C5.49325 158.862 5.55209 162.538 8.59111 164.89Z" fill="#333333"></path></g><defs><clipPath id="clip0_35_1977"><rect width="250" height="250" fill="white" transform="matrix(-1 0 0 1 250 0)"></rect></clipPath></defs></svg>